<svg version="1.1" id="Layer_1" xmlns="http://www.w3.org/2000/svg" xmlns:xlink="http://www.w3.org/1999/xlink" x="0px" y="0px"
	 width="100%" viewBox="0 0 645 163" enable-background="new 0 0 645 163" xml:space="preserve">
<path fill="#FFFFFF" opacity="1.000000" stroke="none" 
	d="
M296.000000,164.000000 
	C199.166672,164.000000 102.333336,164.004501 5.500020,163.958420 
	C3.999860,163.957718 2.499999,163.333344 1.468644,162.500000 
	C9.540030,162.000000 17.142769,162.000000 25.000000,162.000000 
	C25.000000,159.834183 25.000000,158.195526 25.000000,156.556885 
	C25.000000,123.064964 24.999926,89.573051 25.000311,56.081131 
	C25.000324,54.914761 24.853579,53.724167 25.035671,52.586548 
	C25.591875,49.111668 28.883514,47.859726 31.574194,50.129578 
	C32.828850,51.187996 33.980015,52.428429 34.953671,53.751511 
	C45.689991,68.340919 56.336910,82.996239 67.097740,97.567467 
	C80.367058,115.535431 93.610901,133.524475 107.117134,151.313553 
	C110.449036,155.701996 113.116646,161.521347 119.741432,161.924942 
	C125.343079,162.266190 130.982025,161.995255 136.640533,161.995255 
	C136.640533,108.760933 136.640533,55.911598 136.640533,3.000035 
	C133.282471,3.000035 130.282654,2.947070 127.285309,3.010709 
	C120.365349,3.157632 113.665077,8.626528 113.791100,16.519075 
	C114.296501,48.170029 113.983261,79.833809 114.024269,111.492783 
	C114.028679,114.896179 113.918404,118.040680 109.356590,119.046043 
	C108.370079,117.962585 107.124916,116.836548 106.167488,115.503815 
	C100.515961,107.636986 95.032234,99.648125 89.305580,91.837021 
	C70.841431,66.652077 52.322128,41.507420 33.763165,16.392246 
	C29.299433,10.351642 24.660099,4.188261 16.458435,3.278080 
	C11.358150,2.712075 6.156278,3.061459 1.000000,3.000000 
	C1.331883,2.333333 1.544938,1.216174 2.019642,1.090961 
	C3.108835,0.803662 4.325597,1.000000 5.490572,1.000000 
	C103.681274,1.000000 201.871979,1.000000 300.392944,1.387164 
	C298.161682,2.183318 295.576721,2.481836 293.042480,3.019616 
	C278.888977,6.023077 267.330933,12.976241 258.582367,24.763348 
	C250.984711,34.999821 248.542755,46.737595 248.123230,58.911591 
	C247.607101,73.888832 247.555405,88.915871 248.177048,103.885086 
	C248.516281,112.053406 249.647537,120.481316 252.195694,128.207001 
	C258.265015,146.608521 272.513306,156.540802 290.399048,162.003586 
	C292.292633,162.581940 294.134277,163.330444 296.000000,164.000000 
z"/>
<path fill="#FFFFFF" opacity="1.000000" stroke="none" 
	d="
M558.000000,164.000000 
	C486.979095,164.000000 415.958221,164.000000 344.612244,163.608765 
	C346.518890,162.820312 348.759308,162.466187 350.981079,162.019394 
	C379.816010,156.220749 394.038544,136.318680 395.658081,111.548546 
	C396.995361,91.094429 396.191406,70.384872 394.771667,49.896919 
	C393.208374,27.337053 379.746613,12.871852 359.017578,5.144009 
	C353.292450,3.009655 347.020874,2.341103 341.000000,1.000003 
	C402.020905,1.000000 463.041779,1.000000 524.404419,1.377828 
	C512.028442,3.314671 507.233612,9.357135 507.195679,17.983370 
	C507.048431,51.501266 507.347015,85.030014 508.132080,118.539436 
	C508.535461,135.757034 523.086548,153.587509 539.801880,158.969162 
	C545.787354,160.896286 551.929382,162.337189 558.000000,164.000000 
z"/>
<path fill="#FFFFFF" opacity="1.000000" stroke="none" 
	d="
M527.000000,0.999998 
	C563.354248,1.000000 599.708435,1.000000 636.427307,1.358289 
	C636.069031,2.071115 635.370850,2.492759 634.619446,2.770030 
	C624.265259,6.590671 622.084412,9.815110 621.983887,20.785061 
	C621.696167,52.178192 621.611328,83.577126 620.878113,114.960495 
	C620.532471,129.757935 606.974304,142.466751 590.193237,142.952682 
	C581.040466,143.217728 571.866638,143.230606 562.714844,142.950592 
	C545.254944,142.416321 531.897766,128.712601 531.977600,111.798241 
	C532.072632,91.645744 532.000000,71.492462 532.000000,51.339520 
	C532.000000,35.033108 532.000000,18.726700 532.000000,2.648277 
	C530.131592,2.032346 528.565796,1.516171 527.000000,0.999998 
z"/>
<path fill="#000000" opacity="1.000000" stroke="none" 
	d="
M1.000000,3.468657 
	C6.156278,3.061459 11.358150,2.712075 16.458435,3.278080 
	C24.660099,4.188261 29.299433,10.351642 33.763165,16.392246 
	C52.322128,41.507420 70.841431,66.652077 89.305580,91.837021 
	C95.032234,99.648125 100.515961,107.636986 106.167488,115.503815 
	C107.124916,116.836548 108.370079,117.962585 109.356590,119.046043 
	C113.918404,118.040680 114.028679,114.896179 114.024269,111.492783 
	C113.983261,79.833809 114.296501,48.170029 113.791100,16.519075 
	C113.665077,8.626528 120.365349,3.157632 127.285309,3.010709 
	C130.282654,2.947070 133.282471,3.000035 136.640533,3.000035 
	C136.640533,55.911598 136.640533,108.760933 136.640533,161.995255 
	C130.982025,161.995255 125.343079,162.266190 119.741432,161.924942 
	C113.116646,161.521347 110.449036,155.701996 107.117134,151.313553 
	C93.610901,133.524475 80.367058,115.535431 67.097740,97.567467 
	C56.336910,82.996239 45.689991,68.340919 34.953671,53.751511 
	C33.980015,52.428429 32.828850,51.187996 31.574194,50.129578 
	C28.883514,47.859726 25.591875,49.111668 25.035671,52.586548 
	C24.853579,53.724167 25.000324,54.914761 25.000311,56.081131 
	C24.999926,89.573051 25.000000,123.064964 25.000000,156.556885 
	C25.000000,158.195526 25.000000,159.834183 25.000000,162.000000 
	C17.142769,162.000000 9.540030,162.000000 1.468645,162.000000 
	C1.000000,109.312439 1.000000,56.624878 1.000000,3.468657 
z"/>
<path fill="#000000" opacity="1.000000" stroke="none" 
	d="
M340.531342,1.000003 
	C347.020874,2.341103 353.292450,3.009655 359.017578,5.144009 
	C379.746613,12.871852 393.208374,27.337053 394.771667,49.896919 
	C396.191406,70.384872 396.995361,91.094429 395.658081,111.548546 
	C394.038544,136.318680 379.816010,156.220749 350.981079,162.019394 
	C348.759308,162.466187 346.518890,162.820312 344.143555,163.608765 
	C328.312439,164.000000 312.624878,164.000000 296.468658,164.000000 
	C294.134277,163.330444 292.292633,162.581940 290.399048,162.003586 
	C272.513306,156.540802 258.265015,146.608521 252.195694,128.207001 
	C249.647537,120.481316 248.516281,112.053406 248.177048,103.885086 
	C247.555405,88.915871 247.607101,73.888832 248.123230,58.911591 
	C248.542755,46.737595 250.984711,34.999821 258.582367,24.763348 
	C267.330933,12.976241 278.888977,6.023077 293.042480,3.019616 
	C295.576721,2.481836 298.161682,2.183318 300.861633,1.387164 
	C314.020905,1.000000 327.041779,1.000000 340.531342,1.000003 
M323.495361,144.000000 
	C329.406006,143.666687 335.329926,143.484482 341.224152,142.964874 
	C350.213257,142.172440 357.211761,137.727661 363.043457,130.957611 
	C370.312561,122.518890 371.724701,112.233521 371.859192,101.889351 
	C372.063721,86.156097 371.403656,70.408798 370.981140,54.670944 
	C370.516968,37.382412 354.718567,21.816830 337.550354,21.982798 
	C327.723724,22.077795 317.883911,22.304762 308.070251,21.935684 
	C288.471985,21.198616 272.944580,38.331814 272.991425,57.124825 
	C273.032501,73.615036 272.947144,90.105743 273.045319,106.595482 
	C273.064606,109.830017 273.304871,113.149345 274.065460,116.278297 
	C277.180817,129.094467 284.512665,138.683487 297.630768,141.773865 
	C305.649719,143.662949 314.191376,143.333221 323.495361,144.000000 
z"/>
<path fill="#000000" opacity="1.000000" stroke="none" 
	d="
M526.666687,0.999998 
	C528.565796,1.516171 530.131592,2.032346 532.000000,2.648277 
	C532.000000,18.726700 532.000000,35.033108 532.000000,51.339520 
	C532.000000,71.492462 532.072632,91.645744 531.977600,111.798241 
	C531.897766,128.712601 545.254944,142.416321 562.714844,142.950592 
	C571.866638,143.230606 581.040466,143.217728 590.193237,142.952682 
	C606.974304,142.466751 620.532471,129.757935 620.878113,114.960495 
	C621.611328,83.577126 621.696167,52.178192 621.983887,20.785061 
	C622.084412,9.815110 624.265259,6.590671 634.619446,2.770030 
	C635.370850,2.492759 636.069031,2.071115 636.895996,1.358289 
	C637.750000,1.000000 638.500000,1.000000 639.761230,1.385418 
	C642.181641,1.847224 644.090820,1.923613 646.000000,2.000000 
	C646.000000,40.687561 646.000000,79.375122 645.660217,118.615341 
	C645.546936,120.112000 645.773499,121.056000 646.000000,122.000000 
	C646.000000,122.000000 646.000000,122.500000 645.636719,122.847412 
	C644.877380,123.705742 644.273193,124.159698 644.115540,124.735847 
	C638.630676,144.780945 625.522156,156.725998 605.397278,161.181839 
	C600.624207,162.238632 595.800415,163.066711 591.000000,164.000000 
	C591.000000,164.000000 590.500000,164.000000 590.082764,163.591217 
	C581.907166,163.121613 574.148438,163.008057 566.390503,163.046707 
	C564.925415,163.054016 563.463440,163.666672 562.000000,164.000000 
	C560.933289,164.000000 559.866638,164.000000 558.399963,164.000000 
	C551.929382,162.337189 545.787354,160.896286 539.801880,158.969162 
	C523.086548,153.587509 508.535461,135.757034 508.132080,118.539436 
	C507.347015,85.030014 507.048431,51.501266 507.195679,17.983370 
	C507.233612,9.357135 512.028442,3.314671 524.873047,1.377828 
	C525.444458,1.000000 525.888916,1.000000 526.666687,0.999998 
z"/>
<path fill="#FFFFFF" opacity="1.000000" stroke="none" 
	d="
M591.468628,164.000000 
	C595.800415,163.066711 600.624207,162.238632 605.397278,161.181839 
	C625.522156,156.725998 638.630676,144.780945 644.115540,124.735847 
	C644.273193,124.159698 644.877380,123.705742 645.636719,123.097412 
	C646.000000,136.604080 646.000000,150.208176 646.000000,164.000000 
	C627.979553,164.000000 609.958435,164.000000 591.468628,164.000000 
z"/>
<path fill="#FFFFFF" opacity="1.000000" stroke="none" 
	d="
M562.468628,164.000000 
	C563.463440,163.666672 564.925415,163.054016 566.390503,163.046707 
	C574.148438,163.008057 581.907166,163.121613 589.832764,163.591217 
	C580.979126,164.000000 571.958191,164.000000 562.468628,164.000000 
z"/>
<path fill="#FFFFFF" opacity="1.000000" stroke="none" 
	d="
M646.000000,1.500000 
	C644.090820,1.923613 642.181641,1.847224 640.136230,1.385418 
	C642.000000,1.000000 644.000000,1.000000 646.000000,1.500000 
z"/>
<path fill="#FFFFFF" opacity="1.000000" stroke="none" 
	d="
M646.000000,121.625000 
	C645.773499,121.056000 645.546936,120.112000 645.660217,119.084000 
	C646.000000,119.750000 646.000000,120.500000 646.000000,121.625000 
z"/>
<path fill="#FFFFFF" opacity="1.000000" stroke="none" 
	d="
M322.996826,144.000000 
	C314.191376,143.333221 305.649719,143.662949 297.630768,141.773865 
	C284.512665,138.683487 277.180817,129.094467 274.065460,116.278297 
	C273.304871,113.149345 273.064606,109.830017 273.045319,106.595482 
	C272.947144,90.105743 273.032501,73.615036 272.991425,57.124825 
	C272.944580,38.331814 288.471985,21.198616 308.070251,21.935684 
	C317.883911,22.304762 327.723724,22.077795 337.550354,21.982798 
	C354.718567,21.816830 370.516968,37.382412 370.981140,54.670944 
	C371.403656,70.408798 372.063721,86.156097 371.859192,101.889351 
	C371.724701,112.233521 370.312561,122.518890 363.043457,130.957611 
	C357.211761,137.727661 350.213257,142.172440 341.224152,142.964874 
	C335.329926,143.484482 329.406006,143.666687 322.996826,144.000000 
z"/>
</svg>