<?xml version="1.0" standalone="yes"?>
<svg xmlns="http://www.w3.org/2000/svg" width="645" height="163">
<path style="fill:#ffffff; stroke:none;" d="M0 0L0 2C6.92045 2 14.6468 1.10858 21 4.44212C29.9115 9.118 35.5154 20.1886 41.3735 28C55.0326 46.2138 68.2174 64.7841 81.8735 83C88.3403 91.6261 94.7149 100.324 101.116 109C102.958 111.498 105.937 117.578 109.786 116.94C113.161 116.38 112.961 111.492 112.996 109C113.108 101.003 113 92.9975 113 85L113 31C113 24.5734 111.148 14.6508 114.742 9.01543C119.57 1.44554 128.149 2 136 2L136 161C129.898 161 121.622 162.431 116.001 159.682C107.803 155.673 101.955 144.104 96.6265 137C82.9364 118.747 69.5634 100.253 55.8735 82C49.4031 73.3728 43.1304 64.5998 36.6258 56C34.5904 53.309 31.2854 47.701 27.1474 48.7515C22.1014 50.0325 24 61.2112 24 65L24 117L24 161L0 161L0 163L300 163L300 162C257.47 161.122 247 121.589 247 87C247 53.5177 247.003 17.1083 285 4.0787C291.518 1.84373 298.149 1.00453 305 1L277 0L215 0L0 0z"/>
<path style="fill:#010101; stroke:none;" d="M305 0.424377C296.358 1.55966 288.163 2.18671 280 5.61574C245.045 20.2993 247 56.2468 247 88C247 108.367 246.878 128.839 261.439 144.91C280.13 165.54 315.303 165.788 341 162.715C347.817 161.899 354.649 160.845 361 158.127C396.561 142.91 395 108.858 395 76C395 58.1249 396.069 39.3859 385.215 24C367.912 -0.528687 332.511 -3.18971 305 0.424377z"/>
<path style="fill:#ffffff; stroke:none;" d="M337 0L337 1C343.992 1.00076 350.339 1.75566 357 4.00386C394.909 16.7987 395 52.6205 395 86C395 120.89 385.314 161.106 342 162L342 163L645 163L645 116L644 116C642.265 155.81 602.145 162 571 162C556.035 162 540.672 161.287 528 152.211C498.606 131.16 506 90.4075 506 59C506 35.315 498.133 1.00359 531 1L531 85C531 97.6672 528.407 113.373 534.277 125C546.758 149.724 601.465 149.692 615.867 127C621.766 117.704 621 105.538 621 95L621 37C621 17.2857 620.592 1.00267 645 1L617 0L554 0L337 0z"/>
<path style="fill:#010101; stroke:none;" d="M645 1C641.368 1 637.564 0.705566 634 1.52933C617.309 5.38771 621 24.0011 621 37L621 94C621 104.539 621.766 116.703 615.867 126C600.805 149.734 547.38 149.955 534.277 124C528.407 112.373 531 96.6672 531 84L531 1C522.188 1 512.613 1.03001 508 10.0147C503.295 19.1776 506 33.9385 506 44C506 72.8963 498.603 113.454 514.468 139C527.482 159.957 550.789 162 573 162C598.678 162 625.477 160.805 639.11 135C646.828 120.389 645 102.928 645 87L645 1M0 2L0 161L24 161L24 75C24 70.5738 21.3677 49.2068 28.0548 49.2068C31.7553 49.2068 34.6986 54.448 36.6258 57C42.8734 65.2732 48.9056 73.7054 55.1265 82C68.8158 100.252 82.1842 118.748 95.8735 137C101.108 143.979 106.985 155.732 115.004 159.682C120.838 162.556 129.654 161 136 161L136 2C128.926 2 120.45 0.941254 115.434 7.10803C111.081 12.4586 113 22.5305 113 29L113 84C113 92.3207 113.246 100.684 112.985 109C112.912 111.298 112.826 115.713 109.786 116.218C106.045 116.838 102.904 110.425 101.116 108C94.7163 99.3235 88.3402 90.6261 81.8735 82C68.2174 63.7841 55.0326 45.2138 41.3735 27C35.8033 19.5724 30.4614 8.88725 22 4.44212C15.3924 0.970886 7.19785 2 0 2z"/>
<path style="fill:#ffffff; stroke:none;" d="M300 21.4645C266.427 27.5176 272 65.8292 272 91C272 103.361 270.799 116.051 277.711 127C290.274 146.901 322.487 145.618 343 141.689C375.561 135.452 371 96.7045 371 72C371 60.3652 371.379 47.2097 364.867 37C352.409 17.4678 320.583 17.7534 300 21.4645z"/>
</svg>
