<svg xmlns="http://www.w3.org/2000/svg" xmlns:xlink="http://www.w3.org/1999/xlink" version="1.1" id="Layer_1" x="0px" y="0px" style="enable-background:new 0 0 1059.5 752;" xml:space="preserve" viewBox="-0.07 35.69 994.61 696.3" preserveAspectRatio="none">
<style type="text/css">
	.st0{fill:#1D1D1B;}
	.st1{font-family:'IvyJournal-Thin';}
	.st2{font-size:119.9042px;}
	.st3{font-size:119.9011px;}
</style>
<g>
	<path class="st0" d="M606,396.21v213.13C577.23,654.62,489.6,712.7,441.62,712.7c-49.41,0-84.64-33.38-87.15-78.66   c-0.12-1.79-0.18-3.53-0.18-5.32l0.3-11.54c88.71-16.93,151.88-91.7,151.88-186.93c0-22.91-3.65-44.68-10.53-64.72   c-0.78-2.27-1.56-4.49-2.45-6.76c-0.72-1.97-1.5-3.89-2.33-5.86c-0.18-0.42-0.36-0.9-0.54-1.32c-0.9-1.97-1.73-3.95-2.69-5.86   c-1.97-4.25-4.13-8.43-6.46-12.44c-1.14-2.03-2.33-4.07-3.59-6.04c-1.2-1.97-2.45-3.95-3.77-5.86c-1.2-1.79-2.45-3.59-3.71-5.32   c-2.93-4.01-5.98-7.9-9.21-11.66c-0.9-1.02-1.73-2.03-2.69-2.99c-0.84-1.02-1.73-2.03-2.75-3.05c-1.02-1.14-2.09-2.21-3.17-3.29   c-0.36-0.42-0.78-0.78-1.2-1.14c-1.38-1.44-2.75-2.75-4.19-4.07c-3.47-3.23-7.06-6.34-10.77-9.27c-1.32-1.08-2.69-2.15-4.07-3.11   c-0.96-0.78-1.97-1.5-2.99-2.21c-1.08-0.84-2.27-1.62-3.41-2.39c-4.07-2.81-8.19-5.44-12.5-7.9c-1.5-0.84-2.93-1.61-4.43-2.39   c-1.97-1.08-3.95-2.15-5.98-3.05c-1.73-0.96-3.47-1.73-5.26-2.51c-5.26-2.39-10.71-4.61-16.27-6.46c-1.38-0.48-2.75-0.96-4.19-1.38   c-0.84-0.3-1.73-0.6-2.63-0.84c-1.97-0.6-3.95-1.2-5.98-1.73c-1.26-0.36-2.51-0.72-3.83-0.96c-1.14-0.3-2.33-0.6-3.53-0.84   c-0.24-0.12-0.48-0.18-0.72-0.18c-3.29-0.78-6.52-1.44-9.87-1.97c-2.45-0.42-4.91-0.84-7.36-1.08c-0.66-0.12-1.38-0.24-2.09-0.3   c-1.79-0.24-3.65-0.48-5.5-0.6V35.69L322.05,46.4l-2.15,193.39c-1.32-0.12-2.69-0.12-4.07-0.12c-2.81,0-5.62,0.06-8.37,0.18   c-5.92,0.24-11.72,0.72-17.47,1.44c-1.79,0.18-3.53,0.42-5.26,0.72c-3.65,0.54-7.3,1.14-10.89,1.91   c-9.09,1.85-17.89,4.31-26.38,7.36c-1.62,0.54-3.23,1.14-4.85,1.79c-3.41,1.32-6.7,2.75-9.99,4.25c-1.61,0.72-3.23,1.5-4.79,2.27   c-1.56,0.78-3.11,1.56-4.67,2.33c-0.06,0.06-0.06,0.06-0.06,0.06l-6.22-8.08l-167-215.34H-0.07L2.86,496.7l13.04,8.31V63.86   l167.43,216.06l4.73,6.1c-2.51,2.15-4.96,4.37-7.36,6.7c-0.18,0.18-0.36,0.36-0.48,0.54c-2.09,1.97-4.07,4.07-6.04,6.16   c-1.5,1.62-2.99,3.29-4.49,5.02c-0.72,0.84-1.44,1.67-2.09,2.51c-1.56,1.85-3.05,3.71-4.49,5.62c-0.48,0.6-0.96,1.2-1.38,1.85   c-1.32,1.73-2.57,3.53-3.83,5.32c-0.48,0.6-0.9,1.26-1.32,1.91c-1.5,2.21-2.93,4.43-4.31,6.7c-0.12,0.18-0.24,0.36-0.36,0.54   c-1.26,2.15-2.51,4.31-3.71,6.46c-0.06,0.12-0.12,0.24-0.18,0.36c-0.54,0.96-1.08,1.97-1.62,2.99c-1.44,2.75-2.81,5.5-4.07,8.31   c-0.78,1.56-1.5,3.11-2.15,4.73c-1.2,2.81-2.33,5.62-3.41,8.55c-0.66,1.68-1.26,3.47-1.85,5.2c-6.88,20.04-10.53,41.81-10.53,64.72   c0,96.9,65.44,172.69,157.2,187.89c5.14,0.84,10.35,1.5,15.67,1.91c4.55,0.42,9.15,0.66,13.82,0.72c-0.06,0.3,0,0.6,0,0.9   c0.06,3.35,0.36,6.64,0.72,9.81c6.7,58.2,54.97,100.55,119.81,100.55c53.96,0,151.7-60,174.37-102.65l0.72,94.57l36.61-0.6V385.68   L606,396.21z M324.08,605.98c-2.75,0.18-5.5,0.24-8.25,0.24c-12.32,0-24.05-1.44-35.05-4.31   c-65.02-16.63-105.76-80.75-105.76-171.68c0-23.45,2.69-45.16,7.9-64.72h0.06c0.48-2.09,1.08-4.19,1.73-6.28   c0.54-2.03,1.2-4.13,1.91-6.1c0.66-1.91,1.32-3.83,1.97-5.68c0.12-0.24,0.18-0.48,0.24-0.66c0.72-1.85,1.44-3.65,2.15-5.44   c0.6-1.5,1.2-2.93,1.85-4.37c0.78-1.79,1.56-3.53,2.39-5.2c1.08-2.21,2.15-4.37,3.29-6.46c0.9-1.68,1.79-3.29,2.75-4.91   c0.12-0.24,0.24-0.42,0.36-0.66c7.54-12.8,16.63-23.99,26.98-33.32c0.18-0.18,0.36-0.3,0.54-0.48   c21.12-18.72,47.67-29.73,78.3-31.4c2.75-0.18,5.56-0.24,8.37-0.24c2.57,0,5.08,0.06,7.6,0.18c2.51,0.12,4.96,0.3,7.42,0.6   c2.27,0.18,4.55,0.48,6.76,0.84c0.3,0.06,0.6,0.06,0.9,0.12c2.21,0.36,4.43,0.78,6.58,1.26c2.81,0.6,5.62,1.26,8.37,2.09   c1.56,0.36,3.05,0.84,4.55,1.38c0.42,0.12,0.84,0.24,1.32,0.42c0.66,0.18,1.32,0.42,2.03,0.66c1.32,0.48,2.69,1.02,4.01,1.56   c1.5,0.54,2.93,1.14,4.37,1.85c0.6,0.18,1.14,0.42,1.67,0.72c0.72,0.3,1.38,0.6,2.03,0.96c1.32,0.6,2.63,1.26,3.89,1.91v0.06   c0.18,0.06,0.42,0.18,0.6,0.3c1.85,0.96,3.71,2.03,5.5,3.11c0.24,0.18,0.54,0.3,0.78,0.48c1.79,1.08,3.59,2.27,5.38,3.47   c1.5,1.08,3.05,2.15,4.55,3.29c1.38,1.02,2.75,2.15,4.13,3.29c1.32,1.02,2.57,2.09,3.83,3.29c0.18,0.12,0.3,0.3,0.48,0.42   c2.15,1.97,4.31,4.01,6.34,6.16c1.62,1.68,3.23,3.41,4.79,5.2c1.26,1.38,2.39,2.75,3.47,4.19c1.2,1.44,2.33,2.87,3.41,4.37   c2.27,3.11,4.43,6.28,6.52,9.57c0.78,1.32,1.56,2.57,2.33,3.89c0.3,0.48,0.54,1.02,0.84,1.5c0.78,1.2,1.44,2.39,2.03,3.65   c2.99,5.56,5.74,11.48,8.19,17.65c0.54,1.32,1.02,2.63,1.56,4.01c1.5,4.13,2.93,8.31,4.19,12.62c0.66,2.03,1.2,4.07,1.73,6.16   c5.2,19.5,7.9,41.21,7.9,64.72C455.86,533.07,403.7,601.62,324.08,605.98z"/>
	<text transform="matrix(1 -2.389959e-03 2.389959e-03 1 654.7916 552.3866)" class="st0 st1 st2">Design </text>
	<text transform="matrix(0.9999 0.016 -0.016 0.9999 660.9705 669.8126)" class="st0 st1 st3">Studio</text>
</g>
</svg>