<?xml version="1.0" encoding="UTF-8"?>
<svg id="Layer_1" data-name="Layer 1" xmlns="http://www.w3.org/2000/svg" viewBox="0 0 469.6405 302.7314">
  <defs>
    <style>
      .cls-1 {
        fill: #1d1d1b;
      }

      .cls-2 {
        isolation: isolate;
      }
    </style>
  </defs>
  <path class="cls-1" d="M263.502,156.7438v92.6628c-12.5084,19.6865-50.6074,44.938-71.4677,44.938-21.4821,0-36.7991-14.5127-37.8903-34.1991-.0522-.7782-.0783-1.5348-.0783-2.313l.1304-5.0173c38.5686-7.3607,66.0331-39.8686,66.0331-81.2718,0-9.9606-1.5869-19.4256-4.5781-28.1384-.3391-.9869-.6782-1.9521-1.0652-2.9391-.313-.8565-.6522-1.6913-1.013-2.5478-.0783-.1826-.1565-.3913-.2348-.5739-.3913-.8565-.7522-1.7174-1.1695-2.5478-.8565-1.8478-1.7956-3.6651-2.8086-5.4086-.4956-.8826-1.013-1.7695-1.5608-2.626-.5217-.8565-1.0652-1.7174-1.6391-2.5478-.5217-.7782-1.0652-1.5608-1.613-2.313-1.2739-1.7434-2.5999-3.4347-4.0042-5.0694-.3913-.4435-.7522-.8826-1.1695-1.3-.3652-.4435-.7522-.8826-1.1956-1.326-.4435-.4956-.9087-.9608-1.3782-1.4304-.1565-.1826-.3391-.3391-.5217-.4956-.6-.6261-1.1956-1.1956-1.8217-1.7695-1.5087-1.4043-3.0695-2.7564-4.6825-4.0303-.5739-.4695-1.1695-.9348-1.7695-1.3521-.4174-.3391-.8565-.6522-1.3-.9608-.4695-.3652-.9869-.7043-1.4826-1.0391-1.7695-1.2217-3.5608-2.3652-5.4346-3.4347-.6522-.3652-1.2739-.7-1.926-1.0391-.8565-.4695-1.7174-.9348-2.5999-1.326-.7522-.4174-1.5087-.7522-2.2869-1.0913-2.2869-1.0391-4.6564-2.0043-7.0737-2.8086-.6-.2087-1.1956-.4174-1.8217-.6-.3652-.1304-.7522-.2609-1.1435-.3652-.8565-.2609-1.7174-.5217-2.5999-.7522-.5478-.1565-1.0913-.313-1.6652-.4174-.4956-.1304-1.013-.2609-1.5347-.3652-.1043-.0522-.2087-.0783-.313-.0783-1.4304-.3391-2.8347-.6261-4.2912-.8565-1.0652-.1826-2.1347-.3652-3.1999-.4696-.287-.0522-.6-.1043-.9087-.1304-.7782-.1043-1.5869-.2087-2.3912-.2609V0l-5.9825,4.6564-.9348,84.0805c-.5739-.0522-1.1695-.0522-1.7695-.0522-1.2217,0-2.4434,.0261-3.639,.0783-2.5739,.1043-5.0955,.313-7.5955,.6261-.7782,.0783-1.5347,.1826-2.2869,.313-1.5869,.2348-3.1738,.4956-4.7347,.8304-3.9521,.8043-7.7781,1.8739-11.4693,3.1999-.7043,.2348-1.4043,.4956-2.1086,.7782-1.4826,.5739-2.913,1.1956-4.3434,1.8478-.7,.313-1.4043,.6522-2.0826,.9869-.6782,.3391-1.3521,.6782-2.0304,1.013l-.0261,.0261-2.7043-3.513L21.7168,1.2478H0L1.2739,200.434l5.6694,3.613V12.2475L79.7371,106.1842l2.0565,2.6521c-1.0913,.9348-2.1565,1.8999-3.1999,2.913-.0783,.0783-.1565,.1565-.2087,.2348-.9087,.8565-1.7695,1.7695-2.626,2.6782-.6522,.7043-1.3,1.4304-1.9521,2.1825-.313,.3652-.6261,.7261-.9087,1.0913-.6782,.8043-1.3261,1.613-1.9521,2.4434-.2087,.2609-.4174,.5217-.6,.8043-.5739,.7522-1.1174,1.5347-1.6652,2.313-.2087,.2609-.3913,.5478-.5739,.8304-.6522,.9608-1.2739,1.926-1.8739,2.913-.0522,.0783-.1043,.1565-.1565,.2348-.5478,.9348-1.0913,1.8739-1.613,2.8086l-.0783,.1565c-.2348,.4174-.4696,.8565-.7043,1.3-.6261,1.1956-1.2217,2.3912-1.7695,3.613-.3391,.6782-.6522,1.3521-.9348,2.0565-.5217,1.2217-1.013,2.4434-1.4826,3.7173-.287,.7304-.5478,1.5087-.8043,2.2608-2.9912,8.7128-4.5781,18.1778-4.5781,28.1384,0,42.1294,28.4514,75.0807,68.3461,81.6892,2.2347,.3652,4.4999,.6522,6.8129,.8304,1.9782,.1826,3.9782,.2869,6.0085,.313-.0261,.1304,0,.2609,0,.3913,.0261,1.4565,.1565,2.8869,.313,4.2651,2.913,25.3037,23.8994,43.7163,52.09,43.7163,23.4603,0,65.9548-26.0863,75.8111-44.6293l.313,41.1163,15.917-.2609V152.1657l-16.2213,4.5781Zm-122.5708,91.202c-1.1956,.0783-2.3912,.1043-3.5869,.1043-5.3564,0-10.4562-.6261-15.2387-1.8739-28.2688-7.2303-45.9814-35.1078-45.9814-74.6416,0-10.1954,1.1695-19.6343,3.4347-28.1384h.0261c.2087-.9087,.4696-1.8217,.7522-2.7304,.2348-.8826,.5217-1.7956,.8304-2.6521,.287-.8304,.5739-1.6652,.8565-2.4695,.0522-.1043,.0783-.2087,.1043-.287,.313-.8043,.6261-1.5869,.9348-2.3652,.2609-.6522,.5217-1.2739,.8043-1.8999,.3391-.7782,.6782-1.5347,1.0391-2.2608,.4696-.9608,.9348-1.8999,1.4304-2.8086,.3913-.7304,.7782-1.4304,1.1956-2.1347,.0522-.1043,.1043-.1826,.1565-.287,3.2782-5.5651,7.2303-10.4302,11.7301-14.4866,.0783-.0783,.1565-.1304,.2348-.2087,9.1824-8.1389,20.7256-12.9258,34.0426-13.6518,1.1956-.0783,2.4173-.1043,3.639-.1043,1.1174,0,2.2086,.0261,3.3043,.0783,1.0913,.0522,2.1565,.1304,3.226,.2609,.9869,.0783,1.9782,.2087,2.9391,.3652,.1304,.0261,.2609,.0261,.3913,.0522,.9608,.1565,1.926,.3391,2.8608,.5478,1.2217,.2609,2.4434,.5478,3.639,.9087,.6782,.1565,1.326,.3652,1.9782,.6,.1826,.0522,.3652,.1043,.5739,.1826,.287,.0783,.5739,.1826,.8826,.287,.5739,.2087,1.1695,.4435,1.7434,.6782,.6522,.2348,1.2739,.4956,1.8999,.8043,.2609,.0783,.4956,.1826,.7261,.313,.313,.1304,.6,.2609,.8826,.4174,.5739,.2609,1.1435,.5478,1.6913,.8304v.0261c.0783,.0261,.1826,.0783,.2609,.1304,.8043,.4174,1.613,.8826,2.3912,1.3521,.1043,.0783,.2348,.1304,.3391,.2087,.7782,.4695,1.5608,.9869,2.3391,1.5087,.6522,.4695,1.326,.9348,1.9782,1.4304,.6,.4435,1.1956,.9348,1.7956,1.4304,.5739,.4435,1.1174,.9087,1.6652,1.4304,.0783,.0522,.1304,.1304,.2087,.1826,.9348,.8565,1.8739,1.7434,2.7564,2.6782,.7043,.7304,1.4043,1.4826,2.0826,2.2608,.5478,.6,1.0391,1.1956,1.5087,1.8217,.5217,.6261,1.013,1.2478,1.4826,1.8999,.9869,1.3521,1.926,2.7304,2.8347,4.1608,.3391,.5739,.6782,1.1174,1.013,1.6913,.1304,.2087,.2348,.4435,.3652,.6522,.3391,.5217,.6261,1.0391,.8826,1.5869,1.3,2.4173,2.4956,4.9912,3.5608,7.6737,.2348,.5739,.4435,1.1435,.6782,1.7434,.6522,1.7956,1.2739,3.613,1.8217,5.4868,.287,.8826,.5217,1.7695,.7522,2.6782,2.2608,8.478,3.4347,17.9169,3.4347,28.1384,0,44.6988-22.6777,74.5024-57.2942,76.398Z"/>
  <g class="cls-2">
    <path class="cls-1" d="M321.5634,205.1562c.0293,12.3018-7.0947,19.46-19.2393,19.4893l-15.0645,.0361-.002-.834c3.8574-.2178,4.9512-.6377,4.9434-3.8691l-.0684-28.5645c-.0078-3.2314-1.1035-3.6455-4.9609-3.8457l-.002-.834,15.376-.0361c12.1455-.0283,18.9893,6.5742,19.0176,18.458Zm-3.126,.3213c-.0264-10.7373-6.1406-17.4473-16.4092-17.4229l-7.1934,.0176,.083,34.7666c1.5127,.3096,3.8584,.46,7.7158,.4502,10.4248-.0254,15.8311-6.1357,15.8037-17.8115Z"/>
    <path class="cls-1" d="M329.8651,208.9424c-.0508,.5205-.0488,1.042-.0488,1.5635,.0195,7.9746,3.9922,12.709,10.1426,12.6943,2.502-.0068,6.8262-.7979,9.2148-4.6611l1.0967,.623c-2.3887,3.9668-6.3975,6.0098-10.9326,6.0205-7.3496,.0176-12.3135-5.3389-12.334-13.9404-.0205-8.5479,4.916-14.6055,12.6309-14.625,6.7246-.0156,11.0615,4.5605,10.6113,12.2764l-20.3809,.0488Zm.1523-1.3037l17.4629-.041c-.2236-6.0986-3.2031-9.8447-8.3125-9.832-5.3682,.0117-8.4336,4.1377-9.1504,9.873Z"/>
    <path class="cls-1" d="M355.4432,222.8506l-.0137-5.5254,.9902-.0029c.584,4.5859,3.665,6.5596,7.8867,6.5488,4.6396-.0098,7.8652-2.3633,7.8564-5.96-.0059-2.6064-1.7822-4.3232-6.4258-5.9268l-2.0869-.7246c-3.3906-1.1914-7.668-3.0059-7.6797-7.8535-.0107-4.1699,3.1621-6.8359,8.375-6.8477,4.3262-.0098,7.458,1.8066,8.293,2.2207l.0117,4.8477-.9902,.0029c-.6875-4.2207-4.1836-5.8271-7.5195-5.8193-3.6484,.0078-5.9902,1.9941-5.9824,5.0176,.0068,2.7627,1.9902,4.373,6.4775,5.9277l2.0869,.7236c5.5293,1.915,7.6201,4.4131,7.6289,7.8525,.0107,4.8477-4.1514,7.7773-10.3545,7.791-4.6904,.0117-7.4053-1.7021-8.5537-2.2725Z"/>
    <path class="cls-1" d="M379.1639,223.6279c3.5449-.2178,4.5332-.6367,4.5264-3.6592l-.0391-16.5762c-.0088-3.3359-1.001-4.168-4.5459-4.3672l-.002-.834,6.3047-1.2656,.7295-.002,.0547,23.0391c.0068,3.0225,.999,3.4375,4.5439,3.6367l.002,.834-11.5723,.0283-.002-.834Zm3.2539-34.4102c-.0029-1.251,.9326-2.2959,2.2354-2.2988,1.3037-.0029,2.2432,.8809,2.2471,2.1846,.0029,1.25-.9326,2.2949-2.2363,2.2979-1.3027,.0029-2.2432-.8799-2.2461-2.1836Z"/>
    <path class="cls-1" d="M418.2118,225.7246c.0107,4.2734-4.46,9.0791-13.2695,9.1006-6.0459,.0146-9.7002-2.2178-9.71-6.4932-.0059-2.1367,.877-3.5977,2.2842-3.6016,.3125-.001,.625-.002,.9902,.1016-.6221,.9922-.8809,2.0352-.8789,3.0254,.0088,3.4922,3.3496,5.6211,8.3535,5.6094,6.3584-.0156,9.9473-3.4111,9.9395-6.7988-.0059-2.3457-1.7285-3.6455-6.4727-3.9473l-7.4551-.5029c-4.4834-.3018-5.7373-1.4971-5.7422-3.5303-.0039-1.5645,.7236-2.6084,3.1182-3.9688l1.3525-.7852c-2.4004-1.4541-4.4922-4.0547-4.501-7.9121-.0137-5.8379,4.6162-9.5508,9.9854-9.5625,2.6582-.0068,4.9541,.9258,6.626,2.4336,1.2988-1.5664,3.0166-2.457,4.4238-2.4609,1.3555-.0029,2.1914,.8291,2.1953,2.4971l-1.3555,.0029c-1.7197,.0039-3.335,.373-4.3242,.8965,1.3076,1.6133,2.0938,3.6963,2.0996,5.9902,.0127,5.6289-4.6162,9.3926-9.9854,9.4062-1.459,.0029-2.8154-.2539-3.9111-.7207l-2.1865,1.4648c-1.04,.6797-1.2998,1.2012-1.2979,1.7754,.0029,1.3555,1.4111,1.8203,3.9141,1.9707l7.5596,.5039c6.0469,.4023,8.2412,2.4824,8.248,5.5059Zm-12.0684-11.752c4.3262-.0107,7.1855-3.249,7.1738-7.9922-.0117-4.9521-3.0947-8.2812-7.4209-8.2705s-7.1338,3.3008-7.123,8.0439c.0127,4.9521,3.0439,8.2285,7.3701,8.2188Z"/>
    <path class="cls-1" d="M454.6972,223.4473l.002,.834-11.5713,.0273-.002-.834c3.5439-.2168,4.5322-.6367,4.5254-3.6592l-.0312-13.2393c-.0146-5.8379-2.835-8.542-7.1084-8.5312-5.3174,.0117-9.8418,4.2969-9.8271,10.4473l.0273,11.3633c.0068,3.0234,.999,3.4375,4.543,3.6387l.002,.834-11.5713,.0273-.002-.834c3.5449-.2168,4.5332-.6367,4.5264-3.6592l-.0391-16.5752c-.0088-3.3359-1.001-4.168-4.5459-4.3682l-.002-.834,6.3037-1.2666h.4697l.0156,6.7754h.208c1.5547-4.2783,5.2998-7.2061,10.4609-7.2188,5.6289-.0137,9.0234,2.9492,9.04,9.7773l.0322,13.6572c.0068,3.0225,1,3.4375,4.5439,3.6377Z"/>
  </g>
  <g class="cls-2">
    <path class="cls-1" d="M290.4725,272.7236l.1152-7.1924,1.041,.0176c.2207,5.8418,3.8096,9.5479,9.8545,9.6445,5.9414,.0957,10.1123-3.123,10.1943-8.2295,.0625-3.9609-2.3535-6.1377-7.9971-8.5205l-2.6924-1.1387c-4.1934-1.7871-9.4727-4.2178-9.3691-10.6289,.0908-5.6797,4.3203-9.418,10.1572-9.3242,5.5254,.0879,8.5674,2.1172,10.6318,3.5059l-.1074,6.6719-1.043-.0176c-.3262-5.6348-4.2383-8.7207-9.5547-8.8057-4.5859-.0732-7.6045,2.7979-7.6758,7.2793-.0635,3.9609,2.4062,6.0342,8.0498,8.417l2.6934,1.1387c6.5752,2.7637,9.3975,5.624,9.3154,10.7832-.1016,6.3594-5.4834,10.3389-12.7803,10.2217-5.9414-.0947-9.29-2.5459-10.833-3.8223Z"/>
    <path class="cls-1" d="M335.7245,272.7178c-2.6523,2.8779-4.6045,4.3057-7.418,4.2607-3.5439-.0566-5.3848-2.3799-5.3076-7.1748l.3057-19.0752-4.5859-.0732,.0166-1.043c4.1748-.3506,5.0195-.9619,6.4053-9.333l.834,.0137-.1406,8.7041,8.3398,.1338-.5508,1.7637-7.8164-.125-.3008,18.7617c-.0596,3.752,1.3711,5.5469,3.873,5.5879,1.5625,.0254,2.9824-.6826,5.5225-3.0391l.8232,.6377Z"/>
    <path class="cls-1" d="M368.0604,275.2168l-.0127,.834-5.8584,1.1572-.625-.0107-.207-6.6758-.207-.0029c-1.5781,4.1455-5.0635,6.9043-10.0664,6.8242-5.6289-.0898-8.9688-3.1152-8.8594-9.9424l.1895-11.8828c.0537-3.3359-.9238-4.1855-4.4629-4.4502l.0137-.834,6.3252-1.1494,.7295,.0117-.2871,17.9277c-.0938,5.8369,2.6777,8.5918,6.9512,8.6602,5.2129,.084,9.3984-4.124,9.4961-10.2734l.1533-9.5898c.0537-3.3359-.9229-4.1855-4.4639-4.4502l.0137-.834,6.3252-1.1494,.7305,.0117-.3633,22.7227c-.0459,2.8145,.9424,3.0391,4.4854,3.0957Z"/>
    <path class="cls-1" d="M400.3251,275.7324l-.0127,.835-5.8574,1.1562-.626-.0098-.2061-6.6758-.208-.0029c-1.5781,4.1445-5.1143,6.9033-10.1699,6.8223-6.5674-.1055-11.2266-5.3926-11.0928-13.7314,.1504-9.3818,5.7646-14.9209,13.374-14.7998,3.2314,.0518,5.9229,1.1895,8.1299,3.3633l.1289-8.0273c.0527-3.335-.9238-4.1855-4.4639-4.4502l.0137-.834,6.3252-1.1494,.7295,.0117-.5498,34.3975c-.0449,2.8135,.9424,3.0381,4.4854,3.0947Zm-6.8809-9.8066l.1875-11.7266c-2.0996-2.3262-4.9473-3.5713-8.126-3.623-6.4629-.1025-10.3994,4.8906-10.5273,12.8652-.127,7.9219,3.5498,12.6729,9.1787,12.7627,5.0039,.0801,9.1885-4.0752,9.2871-10.2783Z"/>
    <path class="cls-1" d="M404.7977,276.7432c3.5459-.1523,4.543-.5537,4.5918-3.5762l.2646-16.5732c.0537-3.3359-.9229-4.1855-4.4629-4.4512l.0137-.834,6.3252-1.1484,.7295,.0117-.3682,23.0352c-.0488,3.0225,.9355,3.4561,4.4756,3.7207l-.0137,.834-11.5693-.1855,.0137-.833Zm3.8857-34.3447c.0195-1.251,.9736-2.2783,2.2773-2.2578,1.3027,.0215,2.2275,.9219,2.2061,2.2246-.0195,1.251-.9746,2.2793-2.2773,2.2578-1.3037-.0205-2.2275-.9219-2.2061-2.2246Z"/>
    <path class="cls-1" d="M420.5839,264.3281c.1367-8.5479,6.2246-14.3418,13.5732-14.2236,6.9834,.1123,12.8389,5.5752,12.6992,14.3311-.1377,8.5469-6.2246,14.3398-13.5732,14.2227-6.9834-.1123-12.8389-5.5742-12.6992-14.3301Zm23.2471,.2148c.1221-7.6094-4.0137-13.0977-10.0068-13.1934-6.3066-.1006-10.085,4.7402-10.2148,12.8691-.1221,7.6094,4.0127,13.0977,10.0059,13.1934,6.3066,.1016,10.0859-4.7383,10.2158-12.8691Z"/>
  </g>
</svg>