<?xml version="1.0" standalone="no"?>
<!DOCTYPE svg PUBLIC "-//W3C//DTD SVG 20010904//EN"
 "http://www.w3.org/TR/2001/REC-SVG-20010904/DTD/svg10.dtd">
<svg version="1.0" xmlns="http://www.w3.org/2000/svg"
 width="1042.000000pt" height="1042.000000pt" viewBox="0 0 1042.000000 1042.000000"
 preserveAspectRatio="xMidYMid meet">
<metadata>
Created by potrace 1.14, written by Peter Selinger 2001-2017
</metadata>
<g transform="translate(0.000000,1042.000000) scale(0.100000,-0.100000)"
fill="#000000" stroke="none">
<path d="M4854 6379 c-21 -4 -57 -9 -79 -12 -65 -9 -91 -16 -178 -48 -250 -90
-423 -263 -512 -509 -50 -141 -54 -192 -51 -730 1 -272 5 -508 9 -525 29 -115
44 -161 83 -240 70 -145 173 -257 315 -343 65 -40 203 -97 255 -107 16 -2 40
-7 54 -10 78 -16 207 -21 475 -18 346 3 311 1 400 19 239 48 428 164 558 341
74 101 138 269 156 408 12 96 7 996 -6 1055 -20 88 -21 92 -41 150 -75 215
-241 394 -448 486 -78 34 -207 70 -284 80 -81 9 -652 12 -706 3z m731 -327
c150 -52 259 -149 324 -285 21 -45 42 -100 47 -122 4 -22 9 -47 11 -55 3 -8 6
-213 7 -455 2 -554 -5 -604 -106 -756 -64 -97 -156 -166 -278 -211 -63 -22
-74 -23 -400 -23 -323 0 -337 1 -404 23 -195 66 -335 231 -371 440 -22 123
-20 905 2 1012 45 225 209 397 425 444 48 11 137 14 373 12 288 -2 314 -4 370
-24z"/>
<path d="M8286 6355 c-60 -21 -108 -66 -140 -129 l-29 -58 0 -766 c0 -758 2
-835 28 -942 80 -337 348 -561 720 -605 72 -8 619 -8 690 0 257 30 488 166
608 357 63 100 97 193 124 333 3 17 6 434 7 928 l1 897 -80 0 c-136 -1 -223
-50 -269 -150 -19 -44 -20 -63 -22 -840 -2 -768 -2 -797 -22 -862 -29 -94 -68
-161 -130 -224 -65 -64 -172 -120 -257 -133 -85 -13 -588 -7 -649 8 -199 48
-344 217 -371 431 -4 30 -7 441 -7 913 l0 857 -81 0 c-45 -1 -99 -7 -121 -15z"/>
<path d="M129 6313 c0 -26 -1 -588 -2 -1249 l-2 -1201 183 0 182 -1 0 875 0
874 25 23 c13 13 34 22 47 20 13 -1 26 -3 31 -3 4 -1 66 -81 139 -178 213
-287 436 -588 540 -728 53 -71 159 -215 237 -320 78 -104 194 -261 258 -349
74 -100 131 -168 156 -184 39 -26 45 -27 191 -27 l151 0 0 1245 0 1245 -105
-1 c-146 -1 -197 -27 -239 -124 -18 -43 -19 -76 -19 -850 -1 -443 -1 -808 -1
-812 -1 -4 -12 -15 -26 -24 -37 -24 -64 -8 -121 73 -27 37 -51 70 -54 73 -3 3
-68 91 -145 195 -76 105 -196 267 -265 360 -69 94 -154 208 -188 255 -73 100
-334 455 -459 624 -157 212 -181 226 -380 233 l-133 4 -1 -48z"/>
</g>
</svg>
